<svg xmlns="http://www.w3.org/2000/svg" xmlns:xlink="http://www.w3.org/1999/xlink" version="1.1" x="0px" y="0px" viewBox="0 0 100 125" enable-background="new 0 0 100 100" xml:space="preserve"><path d="M62.438,79.318c-3.66,1.899-22.984,11.74-23.354,11.879c-3.298,1.245-7.505,0.394-11.381-2.654  c-4.577-3.599-11.933-9.005-19.562-14.907c-4.254-3.291-3.622-8.034-1.422-11.574c0,0,19.022-34.461,19.396-35.186  c3.125-5.957,12.26-0.693,9.128,5.167c-0.521,0.982-4.82,9.609-5.637,11.235c-0.829,1.646-0.497,2.79,0.366,3.818  c1.414,1.685,3.752,2.82,6.346,0.709l31.065-20.375c2.438-1.542,5.306,0.111,6.686,2.188c1.295,1.946,1.644,4.832-0.536,6.531  L55.468,50.653L66.29,70.279C67.33,73.108,66.911,77.002,62.438,79.318z M85.143,45.865l0.128-0.068  c0.177-0.094,0.354-0.191,0.514-0.298c4.521-3.012,7.598-7.604,8.662-12.932c1.066-5.328-0.009-10.751-3.023-15.269  C85.21,7.971,72.56,5.442,63.229,11.656c-1.133,0.757-2.227,1.698-3.34,2.876c-0.791,0.839-0.756,2.162,0.085,2.955  c0.838,0.791,2.158,0.756,2.952-0.083c0.909-0.961,1.744-1.683,2.621-2.271c7.414-4.936,17.461-2.926,22.397,4.483  c2.395,3.59,3.249,7.898,2.402,12.13c-0.846,4.232-3.29,7.881-6.887,10.277l-0.128,0.069c-0.109,0.057-0.218,0.114-0.324,0.178  c-0.993,0.589-1.319,1.871-0.729,2.864c0.393,0.658,1.086,1.022,1.799,1.022C84.44,46.157,84.808,46.063,85.143,45.865z"/><text x="0" y="115" fill="#000000" font-size="5px" font-weight="bold" font-family="'Helvetica Neue', Helvetica, Arial-Unicode, Arial, Sans-serif">Created by Johannes Thielen</text><text x="0" y="120" fill="#000000" font-size="5px" font-weight="bold" font-family="'Helvetica Neue', Helvetica, Arial-Unicode, Arial, Sans-serif">from the Noun Project</text></svg>